<mxfile host="65bd71144e">
    <diagram id="2hzB7h1dTjumFmZ8ST3w" name="Page-1">
        <mxGraphModel dx="2290" dy="1820" grid="1" gridSize="10" guides="1" tooltips="1" connect="1" arrows="1" fold="1" page="1" pageScale="1" pageWidth="850" pageHeight="1100" math="0" shadow="0">
            <root>
                <mxCell id="0"/>
                <mxCell id="1" parent="0"/>
                <mxCell id="2" value="PoweredDevice" style="swimlane;fontStyle=1;align=center;verticalAlign=top;childLayout=stackLayout;horizontal=1;startSize=26;horizontalStack=0;resizeParent=1;resizeParentMax=0;resizeLast=0;collapsible=1;marginBottom=0;" vertex="1" parent="1">
                    <mxGeometry x="260" y="160" width="180" height="190" as="geometry"/>
                </mxCell>
                <mxCell id="137" value="- id: int" style="text;strokeColor=none;fillColor=none;align=left;verticalAlign=top;spacingLeft=4;spacingRight=4;overflow=hidden;rotatable=0;points=[[0,0.5],[1,0.5]];portConstraint=eastwest;" vertex="1" parent="2">
                    <mxGeometry y="26" width="180" height="26" as="geometry"/>
                </mxCell>
                <mxCell id="3" value="- name: String" style="text;strokeColor=none;fillColor=none;align=left;verticalAlign=top;spacingLeft=4;spacingRight=4;overflow=hidden;rotatable=0;points=[[0,0.5],[1,0.5]];portConstraint=eastwest;" vertex="1" parent="2">
                    <mxGeometry y="52" width="180" height="26" as="geometry"/>
                </mxCell>
                <mxCell id="6" value="- isPoweredOn: boolean" style="text;strokeColor=none;fillColor=none;align=left;verticalAlign=top;spacingLeft=4;spacingRight=4;overflow=hidden;rotatable=0;points=[[0,0.5],[1,0.5]];portConstraint=eastwest;" vertex="1" parent="2">
                    <mxGeometry y="78" width="180" height="26" as="geometry"/>
                </mxCell>
                <mxCell id="4" value="" style="line;strokeWidth=1;fillColor=none;align=left;verticalAlign=middle;spacingTop=-1;spacingLeft=3;spacingRight=3;rotatable=0;labelPosition=right;points=[];portConstraint=eastwest;strokeColor=inherit;" vertex="1" parent="2">
                    <mxGeometry y="104" width="180" height="8" as="geometry"/>
                </mxCell>
                <mxCell id="7" value="+ getPowerState(): boolean" style="text;strokeColor=none;fillColor=none;align=left;verticalAlign=top;spacingLeft=4;spacingRight=4;overflow=hidden;rotatable=0;points=[[0,0.5],[1,0.5]];portConstraint=eastwest;" vertex="1" parent="2">
                    <mxGeometry y="112" width="180" height="26" as="geometry"/>
                </mxCell>
                <mxCell id="107" value="+ getName(): String" style="text;strokeColor=none;fillColor=none;align=left;verticalAlign=top;spacingLeft=4;spacingRight=4;overflow=hidden;rotatable=0;points=[[0,0.5],[1,0.5]];portConstraint=eastwest;" vertex="1" parent="2">
                    <mxGeometry y="138" width="180" height="26" as="geometry"/>
                </mxCell>
                <mxCell id="108" value="+ setName(name: String): void" style="text;strokeColor=none;fillColor=none;align=left;verticalAlign=top;spacingLeft=4;spacingRight=4;overflow=hidden;rotatable=0;points=[[0,0.5],[1,0.5]];portConstraint=eastwest;" vertex="1" parent="2">
                    <mxGeometry y="164" width="180" height="26" as="geometry"/>
                </mxCell>
                <mxCell id="8" value="RemoteControl" style="swimlane;fontStyle=1;align=center;verticalAlign=top;childLayout=stackLayout;horizontal=1;startSize=26;horizontalStack=0;resizeParent=1;resizeParentMax=0;resizeLast=0;collapsible=1;marginBottom=0;" vertex="1" parent="1">
                    <mxGeometry x="1220" y="520" width="220" height="216" as="geometry"/>
                </mxCell>
                <mxCell id="144" value="- id: int" style="text;strokeColor=none;fillColor=none;align=left;verticalAlign=top;spacingLeft=4;spacingRight=4;overflow=hidden;rotatable=0;points=[[0,0.5],[1,0.5]];portConstraint=eastwest;" vertex="1" parent="8">
                    <mxGeometry y="26" width="220" height="26" as="geometry"/>
                </mxCell>
                <mxCell id="9" value="- name: String" style="text;strokeColor=none;fillColor=none;align=left;verticalAlign=top;spacingLeft=4;spacingRight=4;overflow=hidden;rotatable=0;points=[[0,0.5],[1,0.5]];portConstraint=eastwest;" vertex="1" parent="8">
                    <mxGeometry y="52" width="220" height="26" as="geometry"/>
                </mxCell>
                <mxCell id="10" value="- batteryLevel: int" style="text;strokeColor=none;fillColor=none;align=left;verticalAlign=top;spacingLeft=4;spacingRight=4;overflow=hidden;rotatable=0;points=[[0,0.5],[1,0.5]];portConstraint=eastwest;" vertex="1" parent="8">
                    <mxGeometry y="78" width="220" height="26" as="geometry"/>
                </mxCell>
                <mxCell id="11" value="" style="line;strokeWidth=1;fillColor=none;align=left;verticalAlign=middle;spacingTop=-1;spacingLeft=3;spacingRight=3;rotatable=0;labelPosition=right;points=[];portConstraint=eastwest;strokeColor=inherit;" vertex="1" parent="8">
                    <mxGeometry y="104" width="220" height="8" as="geometry"/>
                </mxCell>
                <mxCell id="12" value="+ changeChannel(channel: int): void" style="text;strokeColor=none;fillColor=none;align=left;verticalAlign=top;spacingLeft=4;spacingRight=4;overflow=hidden;rotatable=0;points=[[0,0.5],[1,0.5]];portConstraint=eastwest;" vertex="1" parent="8">
                    <mxGeometry y="112" width="220" height="26" as="geometry"/>
                </mxCell>
                <mxCell id="145" value="+ remoteVolumeUp(): void" style="text;strokeColor=none;fillColor=none;align=left;verticalAlign=top;spacingLeft=4;spacingRight=4;overflow=hidden;rotatable=0;points=[[0,0.5],[1,0.5]];portConstraint=eastwest;" vertex="1" parent="8">
                    <mxGeometry y="138" width="220" height="26" as="geometry"/>
                </mxCell>
                <mxCell id="13" value="+ remoteVolumeDown(): void" style="text;strokeColor=none;fillColor=none;align=left;verticalAlign=top;spacingLeft=4;spacingRight=4;overflow=hidden;rotatable=0;points=[[0,0.5],[1,0.5]];portConstraint=eastwest;" vertex="1" parent="8">
                    <mxGeometry y="164" width="220" height="26" as="geometry"/>
                </mxCell>
                <mxCell id="14" value="+ chargeBattery(): void" style="text;strokeColor=none;fillColor=none;align=left;verticalAlign=top;spacingLeft=4;spacingRight=4;overflow=hidden;rotatable=0;points=[[0,0.5],[1,0.5]];portConstraint=eastwest;" vertex="1" parent="8">
                    <mxGeometry y="190" width="220" height="26" as="geometry"/>
                </mxCell>
                <mxCell id="122" style="edgeStyle=none;html=1;endArrow=block;endFill=0;exitX=0.618;exitY=-0.017;exitDx=0;exitDy=0;exitPerimeter=0;" edge="1" parent="1" source="15">
                    <mxGeometry relative="1" as="geometry">
                        <mxPoint x="980" y="740" as="targetPoint"/>
                    </mxGeometry>
                </mxCell>
                <mxCell id="15" value="Radio" style="swimlane;fontStyle=1;align=center;verticalAlign=top;childLayout=stackLayout;horizontal=1;startSize=26;horizontalStack=0;resizeParent=1;resizeParentMax=0;resizeLast=0;collapsible=1;marginBottom=0;" vertex="1" parent="1">
                    <mxGeometry x="820" y="890" width="260" height="112" as="geometry"/>
                </mxCell>
                <mxCell id="16" value="- frequency: double" style="text;strokeColor=none;fillColor=none;align=left;verticalAlign=top;spacingLeft=4;spacingRight=4;overflow=hidden;rotatable=0;points=[[0,0.5],[1,0.5]];portConstraint=eastwest;" vertex="1" parent="15">
                    <mxGeometry y="26" width="260" height="26" as="geometry"/>
                </mxCell>
                <mxCell id="18" value="" style="line;strokeWidth=1;fillColor=none;align=left;verticalAlign=middle;spacingTop=-1;spacingLeft=3;spacingRight=3;rotatable=0;labelPosition=right;points=[];portConstraint=eastwest;strokeColor=inherit;" vertex="1" parent="15">
                    <mxGeometry y="52" width="260" height="8" as="geometry"/>
                </mxCell>
                <mxCell id="19" value="+ setFrequency(newFrequency: double): void" style="text;strokeColor=none;fillColor=none;align=left;verticalAlign=top;spacingLeft=4;spacingRight=4;overflow=hidden;rotatable=0;points=[[0,0.5],[1,0.5]];portConstraint=eastwest;" vertex="1" parent="15">
                    <mxGeometry y="60" width="260" height="26" as="geometry"/>
                </mxCell>
                <mxCell id="20" value="+ getFrequency(): double" style="text;strokeColor=none;fillColor=none;align=left;verticalAlign=top;spacingLeft=4;spacingRight=4;overflow=hidden;rotatable=0;points=[[0,0.5],[1,0.5]];portConstraint=eastwest;" vertex="1" parent="15">
                    <mxGeometry y="86" width="260" height="26" as="geometry"/>
                </mxCell>
                <mxCell id="123" style="edgeStyle=none;html=1;endArrow=block;endFill=0;" edge="1" parent="1" source="31">
                    <mxGeometry relative="1" as="geometry">
                        <mxPoint x="1027" y="740" as="targetPoint"/>
                        <Array as="points">
                            <mxPoint x="1310" y="780"/>
                            <mxPoint x="1028" y="780"/>
                        </Array>
                    </mxGeometry>
                </mxCell>
                <mxCell id="31" value="Television" style="swimlane;fontStyle=1;align=center;verticalAlign=top;childLayout=stackLayout;horizontal=1;startSize=26;horizontalStack=0;resizeParent=1;resizeParentMax=0;resizeLast=0;collapsible=1;marginBottom=0;" vertex="1" parent="1">
                    <mxGeometry x="1180" y="890" width="260" height="112" as="geometry"/>
                </mxCell>
                <mxCell id="32" value="- channel: int" style="text;strokeColor=none;fillColor=none;align=left;verticalAlign=top;spacingLeft=4;spacingRight=4;overflow=hidden;rotatable=0;points=[[0,0.5],[1,0.5]];portConstraint=eastwest;" vertex="1" parent="31">
                    <mxGeometry y="26" width="260" height="26" as="geometry"/>
                </mxCell>
                <mxCell id="34" value="" style="line;strokeWidth=1;fillColor=none;align=left;verticalAlign=middle;spacingTop=-1;spacingLeft=3;spacingRight=3;rotatable=0;labelPosition=right;points=[];portConstraint=eastwest;strokeColor=inherit;" vertex="1" parent="31">
                    <mxGeometry y="52" width="260" height="8" as="geometry"/>
                </mxCell>
                <mxCell id="35" value="+ setChannel(newChannel: int): void" style="text;strokeColor=none;fillColor=none;align=left;verticalAlign=top;spacingLeft=4;spacingRight=4;overflow=hidden;rotatable=0;points=[[0,0.5],[1,0.5]];portConstraint=eastwest;" vertex="1" parent="31">
                    <mxGeometry y="60" width="260" height="26" as="geometry"/>
                </mxCell>
                <mxCell id="36" value="+ getChannel(): int" style="text;strokeColor=none;fillColor=none;align=left;verticalAlign=top;spacingLeft=4;spacingRight=4;overflow=hidden;rotatable=0;points=[[0,0.5],[1,0.5]];portConstraint=eastwest;" vertex="1" parent="31">
                    <mxGeometry y="86" width="260" height="26" as="geometry"/>
                </mxCell>
                <mxCell id="119" style="edgeStyle=none;html=1;entryX=0.838;entryY=1.06;entryDx=0;entryDy=0;entryPerimeter=0;dashed=1;endArrow=block;endFill=0;exitX=0.25;exitY=0;exitDx=0;exitDy=0;" edge="1" parent="1" source="44" target="86">
                    <mxGeometry relative="1" as="geometry">
                        <Array as="points">
                            <mxPoint x="885" y="490"/>
                            <mxPoint x="674" y="490"/>
                        </Array>
                    </mxGeometry>
                </mxCell>
                <mxCell id="120" style="edgeStyle=none;html=1;exitX=0.75;exitY=0;exitDx=0;exitDy=0;dashed=1;endArrow=block;endFill=0;entryX=0.659;entryY=1.096;entryDx=0;entryDy=0;entryPerimeter=0;" edge="1" parent="1" source="44" target="89">
                    <mxGeometry relative="1" as="geometry">
                        <mxPoint x="1014.8571428571429" y="380" as="targetPoint"/>
                    </mxGeometry>
                </mxCell>
                <mxCell id="44" value="BroadcastReceiver" style="swimlane;fontStyle=1;align=center;verticalAlign=top;childLayout=stackLayout;horizontal=1;startSize=26;horizontalStack=0;resizeParent=1;resizeParentMax=0;resizeLast=0;collapsible=1;marginBottom=0;" vertex="1" parent="1">
                    <mxGeometry x="820" y="520" width="260" height="216" as="geometry"/>
                </mxCell>
                <mxCell id="46" value="- volume: int" style="text;strokeColor=none;fillColor=none;align=left;verticalAlign=top;spacingLeft=4;spacingRight=4;overflow=hidden;rotatable=0;points=[[0,0.5],[1,0.5]];portConstraint=eastwest;" vertex="1" parent="44">
                    <mxGeometry y="26" width="260" height="26" as="geometry"/>
                </mxCell>
                <mxCell id="47" value="- hasRemote: boolean" style="text;strokeColor=none;fillColor=none;align=left;verticalAlign=top;spacingLeft=4;spacingRight=4;overflow=hidden;rotatable=0;points=[[0,0.5],[1,0.5]];portConstraint=eastwest;" vertex="1" parent="44">
                    <mxGeometry y="52" width="260" height="26" as="geometry"/>
                </mxCell>
                <mxCell id="141" value="- remoteControllerID: int" style="text;strokeColor=none;fillColor=none;align=left;verticalAlign=top;spacingLeft=4;spacingRight=4;overflow=hidden;rotatable=0;points=[[0,0.5],[1,0.5]];portConstraint=eastwest;" vertex="1" parent="44">
                    <mxGeometry y="78" width="260" height="26" as="geometry"/>
                </mxCell>
                <mxCell id="48" value="" style="line;strokeWidth=1;fillColor=none;align=left;verticalAlign=middle;spacingTop=-1;spacingLeft=3;spacingRight=3;rotatable=0;labelPosition=right;points=[];portConstraint=eastwest;strokeColor=inherit;" vertex="1" parent="44">
                    <mxGeometry y="104" width="260" height="8" as="geometry"/>
                </mxCell>
                <mxCell id="51" value="+ volumeUp(): void" style="text;strokeColor=none;fillColor=none;align=left;verticalAlign=top;spacingLeft=4;spacingRight=4;overflow=hidden;rotatable=0;points=[[0,0.5],[1,0.5]];portConstraint=eastwest;" vertex="1" parent="44">
                    <mxGeometry y="112" width="260" height="26" as="geometry"/>
                </mxCell>
                <mxCell id="52" value="+ volumeDown(): void" style="text;strokeColor=none;fillColor=none;align=left;verticalAlign=top;spacingLeft=4;spacingRight=4;overflow=hidden;rotatable=0;points=[[0,0.5],[1,0.5]];portConstraint=eastwest;" vertex="1" parent="44">
                    <mxGeometry y="138" width="260" height="26" as="geometry"/>
                </mxCell>
                <mxCell id="53" value="+ getVolume(): double" style="text;strokeColor=none;fillColor=none;align=left;verticalAlign=top;spacingLeft=4;spacingRight=4;overflow=hidden;rotatable=0;points=[[0,0.5],[1,0.5]];portConstraint=eastwest;" vertex="1" parent="44">
                    <mxGeometry y="164" width="260" height="26" as="geometry"/>
                </mxCell>
                <mxCell id="142" value="+ getRemoteControllerID(): int" style="text;strokeColor=none;fillColor=none;align=left;verticalAlign=top;spacingLeft=4;spacingRight=4;overflow=hidden;rotatable=0;points=[[0,0.5],[1,0.5]];portConstraint=eastwest;" vertex="1" parent="44">
                    <mxGeometry y="190" width="260" height="26" as="geometry"/>
                </mxCell>
                <mxCell id="118" style="edgeStyle=none;html=1;entryX=0.621;entryY=1.06;entryDx=0;entryDy=0;entryPerimeter=0;dashed=1;endArrow=block;endFill=0;" edge="1" parent="1" source="55" target="86">
                    <mxGeometry relative="1" as="geometry"/>
                </mxCell>
                <mxCell id="55" value="TableLamp" style="swimlane;fontStyle=1;align=center;verticalAlign=top;childLayout=stackLayout;horizontal=1;startSize=26;horizontalStack=0;resizeParent=1;resizeParentMax=0;resizeLast=0;collapsible=1;marginBottom=0;" vertex="1" parent="1">
                    <mxGeometry x="540" y="520" width="200" height="138" as="geometry"/>
                </mxCell>
                <mxCell id="56" value="- brightness: int" style="text;strokeColor=none;fillColor=none;align=left;verticalAlign=top;spacingLeft=4;spacingRight=4;overflow=hidden;rotatable=0;points=[[0,0.5],[1,0.5]];portConstraint=eastwest;" vertex="1" parent="55">
                    <mxGeometry y="26" width="200" height="26" as="geometry"/>
                </mxCell>
                <mxCell id="58" value="" style="line;strokeWidth=1;fillColor=none;align=left;verticalAlign=middle;spacingTop=-1;spacingLeft=3;spacingRight=3;rotatable=0;labelPosition=right;points=[];portConstraint=eastwest;strokeColor=inherit;" vertex="1" parent="55">
                    <mxGeometry y="52" width="200" height="8" as="geometry"/>
                </mxCell>
                <mxCell id="59" value="+ brightnessUp(): void" style="text;strokeColor=none;fillColor=none;align=left;verticalAlign=top;spacingLeft=4;spacingRight=4;overflow=hidden;rotatable=0;points=[[0,0.5],[1,0.5]];portConstraint=eastwest;" vertex="1" parent="55">
                    <mxGeometry y="60" width="200" height="26" as="geometry"/>
                </mxCell>
                <mxCell id="60" value="+ brightnessDown(): void" style="text;strokeColor=none;fillColor=none;align=left;verticalAlign=top;spacingLeft=4;spacingRight=4;overflow=hidden;rotatable=0;points=[[0,0.5],[1,0.5]];portConstraint=eastwest;" vertex="1" parent="55">
                    <mxGeometry y="86" width="200" height="26" as="geometry"/>
                </mxCell>
                <mxCell id="61" value="+ getBrightness(): int" style="text;strokeColor=none;fillColor=none;align=left;verticalAlign=top;spacingLeft=4;spacingRight=4;overflow=hidden;rotatable=0;points=[[0,0.5],[1,0.5]];portConstraint=eastwest;" vertex="1" parent="55">
                    <mxGeometry y="112" width="200" height="26" as="geometry"/>
                </mxCell>
                <mxCell id="114" style="edgeStyle=none;html=1;entryX=0.084;entryY=1.06;entryDx=0;entryDy=0;entryPerimeter=0;endArrow=block;endFill=0;exitX=0.25;exitY=0;exitDx=0;exitDy=0;" edge="1" parent="1" source="62" target="108">
                    <mxGeometry relative="1" as="geometry">
                        <Array as="points">
                            <mxPoint x="318" y="460"/>
                            <mxPoint x="275" y="460"/>
                        </Array>
                    </mxGeometry>
                </mxCell>
                <mxCell id="117" style="edgeStyle=none;html=1;endArrow=block;endFill=0;exitX=0.5;exitY=0;exitDx=0;exitDy=0;entryX=0.13;entryY=0.978;entryDx=0;entryDy=0;entryPerimeter=0;dashed=1;" edge="1" parent="1" source="62" target="86">
                    <mxGeometry relative="1" as="geometry">
                        <Array as="points">
                            <mxPoint x="375" y="490"/>
                            <mxPoint x="560" y="490"/>
                        </Array>
                    </mxGeometry>
                </mxCell>
                <mxCell id="62" value="CoffeeMaker" style="swimlane;fontStyle=1;align=center;verticalAlign=top;childLayout=stackLayout;horizontal=1;startSize=26;horizontalStack=0;resizeParent=1;resizeParentMax=0;resizeLast=0;collapsible=1;marginBottom=0;" vertex="1" parent="1">
                    <mxGeometry x="260" y="520" width="230" height="268" as="geometry"/>
                </mxCell>
                <mxCell id="63" value="- coffeeLevel: int" style="text;strokeColor=none;fillColor=none;align=left;verticalAlign=top;spacingLeft=4;spacingRight=4;overflow=hidden;rotatable=0;points=[[0,0.5],[1,0.5]];portConstraint=eastwest;" vertex="1" parent="62">
                    <mxGeometry y="26" width="230" height="26" as="geometry"/>
                </mxCell>
                <mxCell id="71" value="- waterLevel: int" style="text;strokeColor=none;fillColor=none;align=left;verticalAlign=top;spacingLeft=4;spacingRight=4;overflow=hidden;rotatable=0;points=[[0,0.5],[1,0.5]];portConstraint=eastwest;" vertex="1" parent="62">
                    <mxGeometry y="52" width="230" height="26" as="geometry"/>
                </mxCell>
                <mxCell id="70" value="- hasFilter: boolean" style="text;strokeColor=none;fillColor=none;align=left;verticalAlign=top;spacingLeft=4;spacingRight=4;overflow=hidden;rotatable=0;points=[[0,0.5],[1,0.5]];portConstraint=eastwest;" vertex="1" parent="62">
                    <mxGeometry y="78" width="230" height="26" as="geometry"/>
                </mxCell>
                <mxCell id="64" value="" style="line;strokeWidth=1;fillColor=none;align=left;verticalAlign=middle;spacingTop=-1;spacingLeft=3;spacingRight=3;rotatable=0;labelPosition=right;points=[];portConstraint=eastwest;strokeColor=inherit;" vertex="1" parent="62">
                    <mxGeometry y="104" width="230" height="8" as="geometry"/>
                </mxCell>
                <mxCell id="65" value="+ setCoffeeLevel(amount: int): void" style="text;strokeColor=none;fillColor=none;align=left;verticalAlign=top;spacingLeft=4;spacingRight=4;overflow=hidden;rotatable=0;points=[[0,0.5],[1,0.5]];portConstraint=eastwest;" vertex="1" parent="62">
                    <mxGeometry y="112" width="230" height="26" as="geometry"/>
                </mxCell>
                <mxCell id="66" value="+ getCoffeeLevel(): int" style="text;strokeColor=none;fillColor=none;align=left;verticalAlign=top;spacingLeft=4;spacingRight=4;overflow=hidden;rotatable=0;points=[[0,0.5],[1,0.5]];portConstraint=eastwest;" vertex="1" parent="62">
                    <mxGeometry y="138" width="230" height="26" as="geometry"/>
                </mxCell>
                <mxCell id="128" value="+ setWater(amount: int): void" style="text;strokeColor=none;fillColor=none;align=left;verticalAlign=top;spacingLeft=4;spacingRight=4;overflow=hidden;rotatable=0;points=[[0,0.5],[1,0.5]];portConstraint=eastwest;" vertex="1" parent="62">
                    <mxGeometry y="164" width="230" height="26" as="geometry"/>
                </mxCell>
                <mxCell id="129" value="+ getWaterLevel(): int" style="text;strokeColor=none;fillColor=none;align=left;verticalAlign=top;spacingLeft=4;spacingRight=4;overflow=hidden;rotatable=0;points=[[0,0.5],[1,0.5]];portConstraint=eastwest;" vertex="1" parent="62">
                    <mxGeometry y="190" width="230" height="26" as="geometry"/>
                </mxCell>
                <mxCell id="67" value="+ putFilter(): void" style="text;strokeColor=none;fillColor=none;align=left;verticalAlign=top;spacingLeft=4;spacingRight=4;overflow=hidden;rotatable=0;points=[[0,0.5],[1,0.5]];portConstraint=eastwest;" vertex="1" parent="62">
                    <mxGeometry y="216" width="230" height="26" as="geometry"/>
                </mxCell>
                <mxCell id="130" value="+ getFilter(): boolean" style="text;strokeColor=none;fillColor=none;align=left;verticalAlign=top;spacingLeft=4;spacingRight=4;overflow=hidden;rotatable=0;points=[[0,0.5],[1,0.5]];portConstraint=eastwest;" vertex="1" parent="62">
                    <mxGeometry y="242" width="230" height="26" as="geometry"/>
                </mxCell>
                <mxCell id="81" value="&lt;&lt; ISchwitchable &gt;&gt;" style="swimlane;fontStyle=1;align=center;verticalAlign=top;childLayout=stackLayout;horizontal=1;startSize=26;horizontalStack=0;resizeParent=1;resizeParentMax=0;resizeLast=0;collapsible=1;marginBottom=0;" vertex="1" parent="1">
                    <mxGeometry x="540" y="250" width="160" height="78" as="geometry"/>
                </mxCell>
                <mxCell id="85" value="+ powerOn(): void" style="text;strokeColor=none;fillColor=none;align=left;verticalAlign=top;spacingLeft=4;spacingRight=4;overflow=hidden;rotatable=0;points=[[0,0.5],[1,0.5]];portConstraint=eastwest;" vertex="1" parent="81">
                    <mxGeometry y="26" width="160" height="26" as="geometry"/>
                </mxCell>
                <mxCell id="86" value="+ powerOff(): void" style="text;strokeColor=none;fillColor=none;align=left;verticalAlign=top;spacingLeft=4;spacingRight=4;overflow=hidden;rotatable=0;points=[[0,0.5],[1,0.5]];portConstraint=eastwest;" vertex="1" parent="81">
                    <mxGeometry y="52" width="160" height="26" as="geometry"/>
                </mxCell>
                <mxCell id="87" value="&lt;&lt; IRemoteControllable &gt;&gt;" style="swimlane;fontStyle=1;align=center;verticalAlign=top;childLayout=stackLayout;horizontal=1;startSize=26;horizontalStack=0;resizeParent=1;resizeParentMax=0;resizeLast=0;collapsible=1;marginBottom=0;" vertex="1" parent="1">
                    <mxGeometry x="890" y="250" width="190" height="78" as="geometry"/>
                </mxCell>
                <mxCell id="88" value="+ remotePowerOn(): void" style="text;strokeColor=none;fillColor=none;align=left;verticalAlign=top;spacingLeft=4;spacingRight=4;overflow=hidden;rotatable=0;points=[[0,0.5],[1,0.5]];portConstraint=eastwest;" vertex="1" parent="87">
                    <mxGeometry y="26" width="190" height="26" as="geometry"/>
                </mxCell>
                <mxCell id="89" value="+ remotePowerOff(): void" style="text;strokeColor=none;fillColor=none;align=left;verticalAlign=top;spacingLeft=4;spacingRight=4;overflow=hidden;rotatable=0;points=[[0,0.5],[1,0.5]];portConstraint=eastwest;" vertex="1" parent="87">
                    <mxGeometry y="52" width="190" height="26" as="geometry"/>
                </mxCell>
                <mxCell id="92" value="PoweredDeviceContainer" style="swimlane;fontStyle=1;align=center;verticalAlign=top;childLayout=stackLayout;horizontal=1;startSize=26;horizontalStack=0;resizeParent=1;resizeParentMax=0;resizeLast=0;collapsible=1;marginBottom=0;" vertex="1" parent="1">
                    <mxGeometry x="1220" y="160" width="370" height="216" as="geometry"/>
                </mxCell>
                <mxCell id="93" value="- PoweredDevices: PoweredDevice[ ]" style="text;strokeColor=none;fillColor=none;align=left;verticalAlign=top;spacingLeft=4;spacingRight=4;overflow=hidden;rotatable=0;points=[[0,0.5],[1,0.5]];portConstraint=eastwest;" vertex="1" parent="92">
                    <mxGeometry y="26" width="370" height="26" as="geometry"/>
                </mxCell>
                <mxCell id="95" value="" style="line;strokeWidth=1;fillColor=none;align=left;verticalAlign=middle;spacingTop=-1;spacingLeft=3;spacingRight=3;rotatable=0;labelPosition=right;points=[];portConstraint=eastwest;strokeColor=inherit;" vertex="1" parent="92">
                    <mxGeometry y="52" width="370" height="8" as="geometry"/>
                </mxCell>
                <mxCell id="96" value="+ addDevice(device: PoweredDevice): void" style="text;strokeColor=none;fillColor=none;align=left;verticalAlign=top;spacingLeft=4;spacingRight=4;overflow=hidden;rotatable=0;points=[[0,0.5],[1,0.5]];portConstraint=eastwest;" vertex="1" parent="92">
                    <mxGeometry y="60" width="370" height="26" as="geometry"/>
                </mxCell>
                <mxCell id="98" value="+ removeDevice(int: index): void" style="text;strokeColor=none;fillColor=none;align=left;verticalAlign=top;spacingLeft=4;spacingRight=4;overflow=hidden;rotatable=0;points=[[0,0.5],[1,0.5]];portConstraint=eastwest;" vertex="1" parent="92">
                    <mxGeometry y="86" width="370" height="26" as="geometry"/>
                </mxCell>
                <mxCell id="97" value="+ getDevices(): Device[]" style="text;strokeColor=none;fillColor=none;align=left;verticalAlign=top;spacingLeft=4;spacingRight=4;overflow=hidden;rotatable=0;points=[[0,0.5],[1,0.5]];portConstraint=eastwest;" vertex="1" parent="92">
                    <mxGeometry y="112" width="370" height="26" as="geometry"/>
                </mxCell>
                <mxCell id="99" value="+ powerOnAllDevices(): void" style="text;strokeColor=none;fillColor=none;align=left;verticalAlign=top;spacingLeft=4;spacingRight=4;overflow=hidden;rotatable=0;points=[[0,0.5],[1,0.5]];portConstraint=eastwest;" vertex="1" parent="92">
                    <mxGeometry y="138" width="370" height="26" as="geometry"/>
                </mxCell>
                <mxCell id="100" value="+ powerOffAllDevices(): void" style="text;strokeColor=none;fillColor=none;align=left;verticalAlign=top;spacingLeft=4;spacingRight=4;overflow=hidden;rotatable=0;points=[[0,0.5],[1,0.5]];portConstraint=eastwest;" vertex="1" parent="92">
                    <mxGeometry y="164" width="370" height="26" as="geometry"/>
                </mxCell>
                <mxCell id="136" value="+ powerOffDevices(devicesToPowerOff: PoweredDevices[ ]): void" style="text;strokeColor=none;fillColor=none;align=left;verticalAlign=top;spacingLeft=4;spacingRight=4;overflow=hidden;rotatable=0;points=[[0,0.5],[1,0.5]];portConstraint=eastwest;" vertex="1" parent="92">
                    <mxGeometry y="190" width="370" height="26" as="geometry"/>
                </mxCell>
                <mxCell id="112" style="edgeStyle=none;html=1;entryX=0;entryY=0.5;entryDx=0;entryDy=0;endArrow=diamondThin;endFill=0;exitX=1;exitY=0.5;exitDx=0;exitDy=0;" edge="1" parent="1" source="137" target="93">
                    <mxGeometry relative="1" as="geometry"/>
                </mxCell>
                <mxCell id="115" style="edgeStyle=none;html=1;entryX=0.419;entryY=1.005;entryDx=0;entryDy=0;endArrow=block;endFill=0;exitX=0.25;exitY=0;exitDx=0;exitDy=0;entryPerimeter=0;" edge="1" parent="1" source="55" target="108">
                    <mxGeometry relative="1" as="geometry">
                        <mxPoint x="630" y="520.0000000000001" as="sourcePoint"/>
                        <mxPoint x="630.12" y="380.7900000000001" as="targetPoint"/>
                        <Array as="points">
                            <mxPoint x="590" y="460"/>
                            <mxPoint x="335" y="460"/>
                        </Array>
                    </mxGeometry>
                </mxCell>
                <mxCell id="116" style="edgeStyle=none;html=1;endArrow=block;endFill=0;exitX=0.5;exitY=0;exitDx=0;exitDy=0;entryX=0.784;entryY=1.036;entryDx=0;entryDy=0;entryPerimeter=0;" edge="1" parent="1" source="44" target="108">
                    <mxGeometry relative="1" as="geometry">
                        <mxPoint x="370" y="515.21" as="sourcePoint"/>
                        <mxPoint x="370" y="370" as="targetPoint"/>
                        <Array as="points">
                            <mxPoint x="950" y="430"/>
                            <mxPoint x="401" y="430"/>
                        </Array>
                    </mxGeometry>
                </mxCell>
                <mxCell id="121" style="edgeStyle=none;html=1;entryX=0;entryY=0.5;entryDx=0;entryDy=0;endArrow=open;endFill=0;" edge="1" parent="1" source="46" target="144">
                    <mxGeometry relative="1" as="geometry"/>
                </mxCell>
                <mxCell id="124" value="Powered Device Management UML Class Diagram" style="text;html=1;strokeColor=none;fillColor=none;align=left;verticalAlign=middle;whiteSpace=wrap;rounded=0;fontStyle=1;fontSize=18;" vertex="1" parent="1">
                    <mxGeometry x="100" y="40" width="480" height="30" as="geometry"/>
                </mxCell>
                <mxCell id="125" value="Marin Balabanov, 29. September 2023" style="text;html=1;strokeColor=none;fillColor=none;align=left;verticalAlign=middle;whiteSpace=wrap;rounded=0;" vertex="1" parent="1">
                    <mxGeometry x="100" y="70" width="230" height="30" as="geometry"/>
                </mxCell>
                <mxCell id="132" value="This is the main class that all&lt;br&gt;the other device classes&lt;br&gt;are derived from.&lt;br&gt;&lt;br&gt;Please note that this is not&lt;br&gt;an abstract class because all&lt;br&gt;of the requirements can be&lt;br&gt;implemented without issue." style="text;html=1;strokeColor=none;fillColor=none;align=right;verticalAlign=middle;whiteSpace=wrap;rounded=0;" vertex="1" parent="1">
                    <mxGeometry x="80" y="160" width="170" height="120" as="geometry"/>
                </mxCell>
                <mxCell id="133" value="This interface only exists because it is an exercise requirement. Both methods in it could instead be added as abstract methods to the PowereDevice class (turning it into an abstract class)." style="text;html=1;strokeColor=none;fillColor=none;align=left;verticalAlign=middle;whiteSpace=wrap;rounded=0;" vertex="1" parent="1">
                    <mxGeometry x="710" y="250" width="150" height="120" as="geometry"/>
                </mxCell>
                <mxCell id="134" value="Interface" style="text;html=1;strokeColor=none;fillColor=none;align=center;verticalAlign=middle;whiteSpace=wrap;rounded=0;" vertex="1" parent="1">
                    <mxGeometry x="540" y="230" width="160" height="20" as="geometry"/>
                </mxCell>
                <mxCell id="135" value="Interface" style="text;html=1;strokeColor=none;fillColor=none;align=center;verticalAlign=middle;whiteSpace=wrap;rounded=0;" vertex="1" parent="1">
                    <mxGeometry x="890" y="230" width="190" height="20" as="geometry"/>
                </mxCell>
                <mxCell id="140" value="The BroadcastReceiver class is not part of the original exercise requirements but makes sense to add here to combine the attributes of radios and televisions." style="text;html=1;strokeColor=none;fillColor=none;align=left;verticalAlign=middle;whiteSpace=wrap;rounded=0;" vertex="1" parent="1">
                    <mxGeometry x="820" y="745" width="150" height="112" as="geometry"/>
                </mxCell>
            </root>
        </mxGraphModel>
    </diagram>
</mxfile>